<svg width="140" height="25" viewBox="0 0 140 25" fill="none" xmlns="http://www.w3.org/2000/svg">
<path fill-rule="evenodd" clip-rule="evenodd" d="M89.995 14.553L104.548 0L110.859 6.31125L117.17 0L123.482 6.31125L129.793 0L139 9.207L124.447 23.76L118.136 17.4488L111.824 23.76L105.513 17.4488L99.202 23.76L89.995 14.553Z" fill="#FFE100"/>
<path d="M13.2947 6.90525H16.1905L12.9235 15.9638H10.2505L8.46849 10.0238L6.68649 15.9638H4.01349L0.74649 6.90525H3.71649L5.42424 12.6968L7.20624 6.90525H9.87924L11.587 12.6225L13.2947 6.90525Z" fill="#292524"/>
<path d="M25.9915 12.3255H19.012C19.309 13.365 20.1257 13.959 21.1652 13.959C22.0562 13.959 22.7987 13.5877 23.0957 13.068H25.843C25.4717 14.0332 24.952 14.7757 24.061 15.3697C23.2442 15.9637 22.279 16.2607 21.091 16.2607C19.6802 16.2607 18.4922 15.8152 17.6012 14.9242C16.7102 14.0332 16.1905 12.8452 16.1905 11.5087C16.1905 10.1722 16.636 9.0585 17.6012 8.09325C18.5665 7.20225 19.7545 6.6825 21.1652 6.6825C22.576 6.6825 23.6897 7.128 24.655 8.019C25.6202 8.91 26.0657 10.098 26.0657 11.4345C26.0657 11.8057 26.0657 12.1027 25.9915 12.3255ZM19.0862 10.5435H23.3185C23.0215 9.57825 22.2047 8.91 21.2395 8.91C20.1257 8.98425 19.3832 9.57825 19.0862 10.5435Z" fill="#292524"/>
<path d="M36.0152 8.09325C36.832 8.98425 37.2775 10.098 37.2775 11.5087C37.2775 12.9195 36.832 14.0332 36.0152 14.9242C35.1985 15.8152 34.159 16.2607 32.8967 16.2607C31.783 16.2607 30.892 15.8152 30.1495 14.9985V16.038H27.5507V3.19275H30.1495V7.94475C30.892 7.128 31.783 6.6825 32.8967 6.6825C34.159 6.6825 35.1985 7.20225 36.0152 8.09325ZM32.377 13.7362C33.0452 13.7362 33.565 13.5135 33.9362 13.068C34.3817 12.6225 34.6045 12.1027 34.6045 11.4345C34.6045 10.7662 34.3817 10.2465 33.9362 9.801C33.4907 9.3555 32.971 9.13275 32.377 9.13275C31.7087 9.13275 31.189 9.3555 30.7435 9.801C30.298 10.2465 30.1495 10.7662 30.1495 11.4345C30.1495 12.1027 30.3722 12.6225 30.7435 13.068C31.189 13.5135 31.7087 13.7362 32.377 13.7362Z" fill="#292524"/>
<path d="M39.2822 15.3698C38.614 14.7758 38.317 14.1075 38.317 13.2165H40.9157C40.9157 13.7363 41.3612 14.1075 41.881 14.1075C42.4007 14.1075 42.772 13.8105 42.772 13.4393C42.772 12.9938 42.3265 12.6225 41.287 12.474C39.3565 12.0285 38.3912 11.0633 38.3912 9.57825C38.3912 8.68725 38.6882 8.019 39.3565 7.49925C40.0247 6.9795 40.8415 6.75675 41.7325 6.75675C42.6977 6.75675 43.5145 7.05375 44.1827 7.5735C44.851 8.09325 45.148 8.7615 45.148 9.57825H42.5492C42.5492 9.13275 42.178 8.7615 41.7325 8.7615C41.287 8.7615 40.99 9.0585 40.99 9.3555C40.99 9.801 41.5097 10.1723 42.475 10.395C43.2917 10.6178 43.8115 10.8405 44.4055 11.2118C44.9995 11.6573 45.2965 12.3255 45.2965 13.2165C45.2965 14.1075 44.9252 14.85 44.257 15.444C43.5887 15.9638 42.772 16.2608 41.7325 16.2608C40.8415 16.1865 40.0247 15.9638 39.2822 15.3698Z" fill="#292524"/>
<path d="M46.5587 4.158C46.5587 3.267 47.227 2.59875 48.1922 2.59875C49.0832 2.59875 49.8257 3.267 49.8257 4.158C49.8257 5.049 49.1575 5.79151 48.1922 5.79151C47.3012 5.79151 46.5587 5.049 46.5587 4.158ZM46.8557 16.038V6.90526H49.4545V15.9638H46.8557V16.038Z" fill="#292524"/>
<path d="M57.2507 9.28125H55.0975V13.662H57.2507V16.038H52.4987V9.3555H50.9395V6.90525H52.4987V4.23225H55.0975V6.90525H57.2507V9.28125Z" fill="#292524"/>
<path d="M67.7942 12.3255H60.8147C61.1117 13.365 61.9285 13.959 62.968 13.959C63.859 13.959 64.6015 13.5877 64.8985 13.068H67.6457C67.2745 14.0332 66.7547 14.7757 65.8637 15.3697C65.047 15.9637 64.0817 16.2607 62.8937 16.2607C61.483 16.2607 60.295 15.8152 59.404 14.9242C58.513 14.0332 57.9932 12.8452 57.9932 11.5087C57.9932 10.1722 58.4387 9.0585 59.404 8.09325C60.3692 7.20225 61.5572 6.6825 62.8937 6.6825C64.3045 6.6825 65.4182 7.128 66.3835 8.019C67.3487 8.91 67.7942 10.098 67.7942 11.4345C67.7942 11.8057 67.7942 12.1027 67.7942 12.3255ZM60.8147 10.5435H65.047C64.75 9.57825 63.9332 8.91 62.968 8.91C61.9285 8.98425 61.1117 9.57825 60.8147 10.5435Z" fill="#292524"/>
<path d="M77.818 8.09325C78.6347 8.98425 79.0802 10.098 79.0802 11.5087C79.0802 12.9195 78.6347 14.0332 77.818 14.9242C77.0012 15.8152 75.9617 16.2607 74.6995 16.2607C73.5857 16.2607 72.6947 15.8152 71.9522 14.9985V16.038H69.3535V3.19275H71.9522V7.94475C72.6947 7.128 73.5857 6.6825 74.6995 6.6825C75.9617 6.6825 77.0012 7.20225 77.818 8.09325ZM74.1797 13.7362C74.848 13.7362 75.3677 13.5135 75.739 13.068C76.1845 12.6225 76.4072 12.1027 76.4072 11.4345C76.4072 10.7662 76.1845 10.2465 75.739 9.801C75.2935 9.3555 74.7737 9.13275 74.1797 9.13275C73.5115 9.13275 72.9917 9.3555 72.5462 9.801C72.1007 10.2465 71.9522 10.7662 71.9522 11.4345C71.9522 12.1027 72.175 12.6225 72.5462 13.068C72.9917 13.5135 73.5115 13.7362 74.1797 13.7362Z" fill="#292524"/>
<path d="M87.025 6.90525H89.9207L84.8717 19.3793H81.3077V17.0033H83.0897L83.5352 15.8895L79.897 6.90525H82.867L84.946 12.6968L87.025 6.90525Z" fill="#292524"/>
<path d="M101.355 6.90525H103.954V19.3792H95.1182V17.0032H101.355V14.7015C100.613 15.5182 99.7217 15.8895 98.608 15.8895C97.3457 15.8895 96.3062 15.444 95.4895 14.553C94.6727 13.662 94.2272 12.5482 94.2272 11.286C94.2272 9.9495 94.6727 8.91 95.4895 8.019C96.3062 7.128 97.3457 6.6825 98.608 6.6825C99.7217 6.6825 100.613 7.05375 101.355 7.8705V6.90525ZM99.1277 13.5135C99.796 13.5135 100.316 13.2907 100.687 12.8452C101.132 12.3997 101.355 11.88 101.355 11.2117C101.355 10.5435 101.132 10.0237 100.687 9.57825C100.241 9.13275 99.7217 8.91 99.1277 8.91C98.4595 8.91 97.9397 9.13275 97.4942 9.57825C97.0487 10.0237 96.9002 10.5435 96.9002 11.2117C96.9002 11.88 97.123 12.3997 97.4942 12.8452C98.014 13.365 98.5337 13.5135 99.1277 13.5135Z" fill="#292524"/>
<path d="M110.562 16.1865C109.151 16.1865 107.964 15.741 107.072 14.85C106.181 13.959 105.662 12.771 105.662 11.4345C105.662 10.098 106.107 8.98425 107.072 8.019C108.038 7.128 109.151 6.6825 110.562 6.6825C111.973 6.6825 113.161 7.128 114.052 8.019C115.017 8.91 115.463 10.0237 115.463 11.4345C115.463 12.8452 115.017 13.959 114.052 14.85C113.161 15.741 111.973 16.1865 110.562 16.1865ZM110.562 13.7362C111.23 13.7362 111.75 13.5135 112.121 13.068C112.567 12.6225 112.79 12.1027 112.79 11.4345C112.79 10.7662 112.567 10.2465 112.121 9.801C111.676 9.3555 111.156 9.13275 110.562 9.13275C109.894 9.13275 109.374 9.3555 108.929 9.801C108.483 10.2465 108.335 10.7662 108.335 11.4345C108.335 12.1027 108.557 12.6225 108.929 13.068C109.374 13.5135 109.968 13.7362 110.562 13.7362Z" fill="#292524"/>
<path d="M124.818 13.662H125.858V16.038H122.591V15.147C121.997 15.8895 121.106 16.1865 120.066 16.1865C119.175 16.1865 118.433 15.8895 117.765 15.3698C117.171 14.7758 116.874 14.1075 116.874 13.2165C116.874 12.3997 117.171 11.6573 117.765 11.1375C118.359 10.5435 119.101 10.2465 120.066 10.2465H122.294V9.28125H117.542V6.90525H124.893V13.662H124.818ZM122.22 13.1423V12.177H120.735C120.066 12.177 119.546 12.6225 119.546 13.2165C119.546 13.8105 120.066 14.256 120.735 14.256C121.626 14.256 122.22 13.8105 122.22 13.1423Z" fill="#292524"/>
<path d="M133.58 9.28125H131.426V13.662H133.58V16.038H128.828V9.3555H127.268V6.90525H128.828V4.23225H131.426V6.90525H133.58V9.28125Z" fill="#292524"/>
</svg>
